<?xml version="1.0" encoding="UTF-8" standalone="no"?>
<svg width="256px" height="256px" viewBox="0 0 256 256" version="1.1" xmlns="http://www.w3.org/2000/svg" xmlns:xlink="http://www.w3.org/1999/xlink">
    <!-- Generator: Sketch 3.8.2 (29753) - http://www.bohemiancoding.com/sketch -->
    <title>airbnbbox</title>
    <desc>Created with Sketch.</desc>
    <defs></defs>
    <g id="Page-1" stroke="none" stroke-width="1" fill="none" fill-rule="evenodd">
        <g id="svgs" transform="translate(-718.000000, -452.000000)">
            <g id="airbnbbox" transform="translate(718.000000, 452.000000)">
                <rect id="Rectangle-2-Copy-9" fill="#F05C61" x="0" y="0" width="256" height="256"></rect>
                <path d="M186.284977,155.666163 C185.631229,154.118647 185.001693,152.426051 184.347944,151.023614 C183.306788,148.70234 182.289845,146.501965 181.369754,144.44667 L181.24869,144.32577 C172.338335,124.957636 162.750018,105.323522 152.677443,85.9553881 L152.290036,85.1816299 C151.248881,83.2472345 150.231938,81.1677594 149.190782,79.1124643 C147.907498,76.7911898 146.6,74.3248356 144.541902,72.0035611 C140.401492,66.8290533 134.445114,64 128.125541,64 C121.660691,64 115.84959,66.8290533 111.563903,71.7375817 C109.626869,74.0588562 108.198307,76.5252104 106.915022,78.8464849 C105.873867,80.9017801 104.856924,82.9812551 103.815768,84.9156506 L103.428362,85.6894087 C93.4768511,105.057543 83.7674698,124.691657 74.85711,144.059791 L74.7360454,144.32577 C73.8401673,146.381065 72.7990117,148.58144 71.7578537,150.902715 C71.1041073,152.329331 70.4745689,153.876848 69.82082,155.545264 C68.1501285,160.332892 67.6174442,164.854542 68.2711931,169.497091 C69.6997554,179.193248 76.1646053,187.317713 85.0749675,190.944705 C88.4405636,192.371329 91.9272242,193 95.5591623,193 C96.6003179,193 97.8836028,192.8791 98.9247584,192.734028 C103.186232,192.226254 107.592984,190.799632 111.854458,188.333276 C117.157088,185.359145 122.193375,181.103473 127.883412,174.913398 C133.573448,181.103473 138.755013,185.383318 143.912366,188.333276 C148.17384,190.799632 152.580591,192.202067 156.842065,192.734028 C157.883221,192.854928 159.166506,193 160.207661,193 C163.8396,193 167.447325,192.347139 170.691856,190.944705 C179.747489,187.317713 186.09125,179.072348 187.495623,169.497091 C188.488353,164.975441 187.979882,160.453792 186.284977,155.666163 L186.284977,155.666163 L186.284977,155.666163 Z M127.980264,162.388188 C121.006942,153.610868 116.479126,145.341328 114.929499,138.377504 C114.27575,135.403371 114.154686,132.816117 114.542092,130.494843 C114.808435,128.439548 115.583248,126.626052 116.600191,125.078536 C119.045696,121.596624 123.186105,119.396249 127.980264,119.396249 C132.774422,119.396249 137.035896,121.451544 139.360336,125.078536 C140.401492,126.626052 141.176306,128.439548 141.418435,130.494843 C141.805842,132.816117 141.684777,135.524271 141.031028,138.377504 C139.481401,145.220428 134.953585,153.465789 127.980264,162.388188 L127.980264,162.388188 L127.980264,162.388188 Z M179.577998,168.457353 C178.68212,175.179377 174.154304,180.982559 167.810519,183.569822 C164.711265,184.851357 161.345669,185.238246 157.980073,184.851357 C154.735541,184.464485 151.515223,183.424735 148.149627,181.490347 C143.500722,178.903088 138.851865,174.913398 133.403958,168.965132 C141.951119,158.495217 147.108471,148.944139 149.045505,140.432799 C149.941383,136.418929 150.08666,132.816117 149.699254,129.455105 C149.190782,126.214993 148.028562,123.26504 146.212593,120.677786 C142.193248,114.8746 135.486269,111.513612 127.980264,111.513612 C120.474258,111.513612 113.767279,114.995499 109.747934,120.677786 C107.931965,123.265064 106.769745,126.239173 106.261273,129.455105 C105.752802,132.816117 105.873867,136.564009 106.915022,140.432799 C108.852056,148.944139 114.154686,158.640296 122.556569,169.110212 C117.25394,175.058478 112.459781,179.048168 107.8109,181.635427 C104.445304,183.569822 101.224986,184.609557 97.9804544,184.996446 C94.4937938,185.383318 91.1281978,184.875546 88.1500085,183.714912 C81.8062232,181.127655 77.278407,175.324457 76.3825289,168.602457 C75.9951222,165.362345 76.2614643,162.146388 77.5447491,158.519397 C77.9321558,157.237884 78.5859071,155.932143 79.2154431,154.384626 C80.1113187,152.329331 81.1524743,150.128956 82.1936299,147.928582 L82.3146945,147.662602 C91.2250495,128.415368 100.813366,108.805434 110.764877,89.6790993 L111.152283,88.9053411 C112.193439,86.9709457 113.210382,84.8914706 114.251537,82.9570752 C115.292693,80.9017801 116.454913,78.9432047 117.859263,77.2747886 C120.57111,74.1797559 124.203048,72.4871599 128.19818,72.4871599 C132.217525,72.4871599 135.82525,74.155576 138.537097,77.2747886 C139.96566,78.9432047 141.12788,80.9017801 142.169035,82.9570752 C143.210191,84.8914706 144.227134,86.9709457 145.268289,88.9053411 L145.655696,89.6790993 C155.486142,108.926334 165.050246,128.536267 173.984814,147.783502 L173.984814,147.904402 C175.025969,149.959697 175.921847,152.305151 176.963003,154.360446 C177.616752,155.907963 178.246288,157.1895 178.633694,158.495217 C179.699063,161.880409 180.08647,165.096341 179.577998,168.457353 L179.577998,168.457353 L179.577998,168.457353 Z" id="Page-1" fill="#FFFFFF"></path>
            </g>
        </g>
    </g>
</svg>