<?xml version="1.0" ?><!DOCTYPE svg  PUBLIC '-//W3C//DTD SVG 1.1//EN'  'http://www.w3.org/Graphics/SVG/1.1/DTD/svg11.dtd'><svg enable-background="new 0 0 128 128" height="128px" id="Layer_1" version="1.1" viewBox="0 0 128 128" width="128px" xml:space="preserve" xmlns="http://www.w3.org/2000/svg" xmlns:xlink="http://www.w3.org/1999/xlink"><path d="M128,112c0,8.8-7.2,16-16,16H16c-8.8,0-16-7.2-16-16V16C0,7.2,7.2,0,16,0h96c8.8,0,16,7.2,16,16V112z" fill="#0084FF"/><path d="M64,17.532c-25.405,0-46,19.259-46,43.015c0,13.515,6.665,25.574,17.089,33.46v16.462  l15.698-8.707c4.186,1.171,8.621,1.8,13.213,1.8c25.405,0,46-19.258,46-43.015C110,36.791,89.405,17.532,64,17.532z M68.845,75.214  L56.947,62.854l-22.912,12.67l25.12-26.656l11.898,12.359l22.91-12.671L68.845,75.214z" fill="#FFFFFF" id="Bubble_Shape"/></svg>