<?xml version="1.0" encoding="utf-8"?>
<!-- Generator: Adobe Illustrator 19.2.1, SVG Export Plug-In . SVG Version: 6.00 Build 0)  -->
<svg version="1.1" id="Layer_1" xmlns="http://www.w3.org/2000/svg" xmlns:xlink="http://www.w3.org/1999/xlink" x="0px" y="0px"
	 width="120px" height="120px" viewBox="0 0 120 120" style="enable-background:new 0 0 120 120;" xml:space="preserve">
<style type="text/css">
	.st0{fill:#FDBB16;}
	.st1{fill:#0E7DC1;}
</style>
<g>
	<path class="st0" d="M61.971,61.783c-0.154-0.954-1.308-1.696-2.74-1.696c-1.416,0-2.579,0.738-2.74,1.685l-1.394,15.812
		c0,1.56,1.83,2.846,4.129,2.846c2.321,0,4.147-1.286,4.147-2.846L61.971,61.783z"/>
	<path class="st0" d="M50.617,58.314c0.75-0.61,0.815-1.982,0.096-3.223c-0.706-1.225-1.927-1.865-2.828-1.527L33.493,60.26
		c-1.351,0.78-1.548,3.005-0.397,4.999c1.16,2.01,3.182,2.947,4.534,2.166L50.617,58.314z"/>
	<path class="st0" d="M70.651,53.686c-0.902-0.346-2.122,0.282-2.839,1.521c-0.704,1.227-0.651,2.606,0.093,3.217L80.9,67.539
		c1.352,0.781,3.378-0.16,4.528-2.153c1.16-2.01,0.963-4.231-0.39-5.013L70.651,53.686z"/>
	<path class="st0" d="M62.098,38.648c-0.152,0.953-1.306,1.694-2.738,1.694c-1.416,0-2.581-0.735-2.738-1.685l-1.394-15.812
		c0-1.562,1.826-2.846,4.129-2.846c2.32,0,4.144,1.284,4.144,2.846L62.098,38.648z"/>
	<path class="st0" d="M70.717,46.856c-0.903,0.346-2.123-0.282-2.838-1.524c-0.706-1.225-0.653-2.603,0.09-3.214l12.995-9.117
		c1.354-0.779,3.379,0.166,4.53,2.156c1.162,2.01,0.96,4.232-0.392,5.012L70.717,46.856z"/>
	<path class="st0" d="M50.682,42.006c0.751,0.608,0.816,1.979,0.097,3.218c-0.707,1.225-1.929,1.869-2.828,1.53l-14.392-6.698
		c-1.353-0.78-1.551-3.005-0.4-4.999c1.16-2.012,3.185-2.949,4.535-2.168L50.682,42.006z"/>
	<path class="st0" d="M88.751,66.711c0.601,0,1.039,0.486,1.039,1.077c0,0.603-0.438,1.089-1.031,1.082
		c-0.609,0-1.054-0.48-1.054-1.082c0-0.592,0.446-1.077,1.038-1.077H88.751z M88.751,66.437c-0.774,0-1.393,0.603-1.393,1.351
		c0,0.768,0.618,1.362,1.393,1.362c0.783,0,1.385-0.594,1.385-1.362c0-0.749-0.603-1.351-1.377-1.351H88.751z M88.545,67.345
		c0.033-0.007,0.092-0.017,0.173-0.017c0.198,0,0.288,0.082,0.288,0.207c0,0.14-0.14,0.196-0.313,0.196h-0.149V67.345z
		 M88.537,67.955h0.15c0.172,0,0.255,0.065,0.28,0.214c0.04,0.157,0.065,0.272,0.107,0.321h0.338
		c-0.033-0.042-0.059-0.124-0.1-0.329c-0.041-0.183-0.114-0.289-0.246-0.33v-0.018c0.166-0.049,0.279-0.163,0.279-0.319
		c0-0.126-0.056-0.233-0.132-0.29c-0.098-0.066-0.214-0.107-0.469-0.107c-0.222,0-0.395,0.025-0.52,0.048v1.344h0.313V67.955z"/>
	<path class="st1" d="M77.244,96.473c0,0.173-0.016,0.349-0.062,0.502c-0.195,0.644-0.861,1.187-1.694,1.187
		c-0.694,0-1.246-0.393-1.246-1.227c0-1.275,1.402-1.628,3.002-1.62V96.473z M79.752,94.252c0-2.104-0.9-3.955-3.936-3.955
		c-1.559,0-2.797,0.439-3.471,0.829l0.493,1.69c0.618-0.389,1.601-0.711,2.533-0.711c1.538-0.004,1.792,0.872,1.792,1.433v0.132
		c-3.359-0.004-5.48,1.159-5.48,3.526c0,1.448,1.081,2.803,2.959,2.803c1.156,0,2.122-0.462,2.701-1.2H77.4
		c0,0,0.383,1.604,2.498,0.991c-0.112-0.668-0.147-1.379-0.147-2.238V94.252z"/>
	<path class="st1" d="M27.439,87.433c0,0,2.195,8.991,2.544,10.45c0.41,1.703,1.146,2.332,3.268,1.908l1.371-5.573
		c0.346-1.387,0.579-2.372,0.803-3.781h0.039c0.156,1.422,0.379,2.4,0.666,3.785c0,0,0.558,2.53,0.843,3.859
		c0.286,1.328,1.084,2.166,3.163,1.71l3.265-12.358h-2.636l-1.115,5.343c-0.3,1.555-0.57,2.771-0.781,4.193h-0.036
		c-0.192-1.409-0.433-2.577-0.739-4.09l-1.159-5.445h-2.746l-1.241,5.307c-0.352,1.613-0.681,2.917-0.889,4.291h-0.04
		c-0.213-1.294-0.498-2.932-0.807-4.492c0,0-0.738-3.797-0.997-5.106H27.439z"/>
	<path class="st1" d="M48.383,96.473c0,0.173-0.015,0.349-0.062,0.502c-0.195,0.644-0.859,1.187-1.694,1.187
		c-0.694,0-1.245-0.393-1.245-1.227c0-1.275,1.404-1.628,3.002-1.62V96.473z M50.891,94.252c0-2.104-0.899-3.955-3.935-3.955
		c-1.56,0-2.797,0.439-3.473,0.829l0.494,1.69c0.617-0.389,1.6-0.711,2.532-0.711c1.542-0.004,1.793,0.872,1.793,1.433v0.132
		c-3.359-0.004-5.48,1.159-5.48,3.526c0,1.448,1.08,2.803,2.958,2.803c1.157,0,2.122-0.462,2.702-1.2h0.057
		c0,0,0.383,1.604,2.498,0.991c-0.112-0.668-0.147-1.379-0.147-2.238V94.252z"/>
	<polygon class="st1" points="55.073,97.167 55.073,87.432 52.563,87.432 52.563,99.79 55.073,99.79 	"/>
	<path class="st1" d="M87.902,87.433v9.116c0,1.257,0.238,2.137,0.743,2.676c0.443,0.47,1.169,0.775,2.042,0.775
		c0.743,0,1.472-0.142,1.816-0.27L92.47,97.77c-0.255,0.062-0.55,0.113-0.952,0.113c-0.855,0-1.141-0.547-1.141-1.676V92.72h2.184
		v-2.365h-2.184v-2.922H87.902z"/>
	<path class="st1" d="M81.424,90.507v9.283h2.588v-4.754c0-0.256,0.016-0.48,0.056-0.684c0.192-0.997,0.954-1.633,2.047-1.633
		c0.3,0,0.515,0.031,0.747,0.065v-2.431c-0.196-0.039-0.329-0.058-0.57-0.058c-0.968,0-2.065,0.624-2.527,1.961h-0.07v-1.751H81.424
		z"/>
	<path class="st1" d="M56.829,90.507v9.283h2.522v-5.445c0-0.256,0.031-0.524,0.119-0.758c0.208-0.549,0.718-1.19,1.533-1.19
		c1.017,0,1.494,0.86,1.494,2.102v5.291h2.52v-5.509c0-0.244,0.033-0.538,0.104-0.753c0.208-0.624,0.757-1.131,1.513-1.131
		c1.033,0,1.529,0.846,1.529,2.307v5.086h2.522v-5.467c0-2.884-1.465-4.027-3.117-4.027c-0.734,0-1.309,0.184-1.833,0.504
		c-0.439,0.27-0.832,0.654-1.175,1.157h-0.038c-0.399-1-1.336-1.661-2.558-1.661c-1.569,0-2.275,0.797-2.703,1.473h-0.037v-1.262
		H56.829z"/>
</g>
</svg>
